<?xml version="1.0" ?><!DOCTYPE svg  PUBLIC '-//W3C//DTD SVG 1.1//EN'  'http://www.w3.org/Graphics/SVG/1.1/DTD/svg11.dtd'><svg enable-background="new 0 0 512 512" height="512px" id="Layer_1" version="1.1" viewBox="0 0 512 512" width="512px" xml:space="preserve" xmlns="http://www.w3.org/2000/svg" xmlns:xlink="http://www.w3.org/1999/xlink"><path d="M152.003,432.97c13.112,10.982,30.484,17.734,49.588,17.734h108.818c19.108,0,36.48-6.752,49.593-17.734  c9.187-7.695,16.253-17.461,20.286-28.521c2.459-6.732,3.843-13.917,3.843-21.405V128.956c0-37.314-33.07-67.661-73.722-67.661  H201.591c-40.647,0-73.722,30.347-73.722,67.661v254.088c0,7.488,1.384,14.673,3.842,21.405  C135.74,415.51,142.817,425.275,152.003,432.97z M354.172,404.449c-8.352,14.339-24.806,24.114-43.763,24.114H201.591  c-18.957,0-35.416-9.775-43.758-24.114c-2.208-3.798-3.769-7.939-4.741-12.277h205.81  C357.936,396.51,356.375,400.651,354.172,404.449z M201.591,83.436h108.818c22.632,0,41.692,13.937,47.635,32.957H153.956  C159.904,97.373,178.954,83.436,201.591,83.436z M152.003,375.928V128.956c0-0.245,0.034-0.481,0.039-0.727h207.921  c0,0.246,0.039,0.481,0.039,0.727v246.973v4.406H152.003V375.928z"/><path d="M255.998,423.302c7.292,0,13.21-5.908,13.21-13.2s-5.919-13.21-13.21-13.21c-7.292,0-13.201,5.918-13.201,13.21  S248.705,423.302,255.998,423.302z"/><circle cx="321.392" cy="100.15" r="4.76"/><path d="M305.075,95.39H200.374c-2.625,0-4.755,2.13-4.755,4.76c0,2.63,2.13,4.76,4.755,4.76h104.701c2.625,0,4.755-2.13,4.755-4.76  C309.83,97.52,307.7,95.39,305.075,95.39z"/></svg>